<svg xmlns="http://www.w3.org/2000/svg" width="400" height="200" viewBox="0 0 400 200">
  <defs>
    <linearGradient id="sky" x1="0" y1="0" x2="0" y2="1">
      <stop offset="0%" stop-color="#0f0c29"/>
      <stop offset="50%" stop-color="#302b63"/>
      <stop offset="100%" stop-color="#24243e"/>
    </linearGradient>
  </defs>
  <rect width="400" height="200" fill="url(#sky)"/>
  <circle cx="320" cy="40" r="20" fill="#ffd700" opacity="0.3"/>
  <rect x="50" y="100" width="30" height="80" fill="#2a2a4a"/>
  <rect x="50" y="90" width="40" height="15" fill="#3a3a5e"/>
  <rect x="120" y="80" width="25" height="100" fill="#2a2a4a"/>
  <rect x="115" y="70" width="35" height="15" fill="#3a3a5e"/>
  <rect x="200" y="110" width="50" height="70" fill="#2a2a4a"/>
  <rect x="210" y="120" width="10" height="15" fill="#1a1a2e"/>
  <rect x="230" y="120" width="10" height="15" fill="#1a1a2e"/>
  <rect x="280" y="90" width="20" height="90" fill="#2a2a4a"/>
  <rect x="330" y="120" width="40" height="60" fill="#2a2a4a"/>
  <rect x="0" y="180" width="400" height="20" fill="#1a1a2e"/>
  <circle cx="100" cy="50" r="1.5" fill="#fff" opacity="0.7"/>
  <circle cx="180" cy="30" r="1" fill="#fff" opacity="0.5"/>
  <circle cx="250" cy="25" r="1.5" fill="#fff" opacity="0.6"/>
  <circle cx="350" cy="55" r="1" fill="#fff" opacity="0.4"/>
  <circle cx="60" cy="20" r="1" fill="#fff" opacity="0.5"/>
</svg>
